<?xml version="1.0" encoding="UTF-8"?>
<svg xmlns="http://www.w3.org/2000/svg" viewBox="0 0 1077.06 418.24">
  <defs>
    <style>
      .cls-1 {
        fill: #fff;
      }
    </style>
  </defs>
  <g id="Williams">
    <g>
      <path class="cls-1" d="M250.47,218.28h20.22v-8.75c0-2.08-1.69-3.77-3.77-3.77h-16.45v12.52Z"/>
      <path class="cls-1" d="M160.97,205.76l-11.12,13.91h6.18s-14.29,17.87-14.29,17.87v-31.78s-14.57,0-14.57,0c-4.14,0-7.58,2.2-9.2,4.21l-23.79,29.75v-33.96h-23.95v70.23h22.9l24.66-30.86v30.86s16.79,0,16.79,0c3.74-.06,7.03-1.29,10.41-5.56l51.75-64.67h-35.77Z"/>
      <path class="cls-1" d="M423.92,221.31c-4.92-1.71-10.57-2.11-15.91-1.14-4.89.89-9.39,3.3-13.15,6.22-1.29-1.35-2.81-2.5-4.57-3.44-2.37-1.27-5.08-2.55-8.07-2.98-3.72-.53-7.69-.35-11.5.52-2.11.48-4.09,1.57-5.89,2.42v-2.2h-20.21v55.28h20.21v-30.36c0-5.78,4.37-8.41,8.42-8.41,2.14,0,4.12.71,5.57,1.99,1.7,1.5,2.6,3.72,2.6,6.42v30.36h20.21v-30.36c-.05-5.72,3.78-8.41,8.35-8.41,2.07,0,3.97.74,5.36,1.99,1.64,1.47,2.51,3.72,2.51,6.42v30.36h20.21l.02-36.59c0-4.07-1.41-7.89-4.08-11.03-2.47-2.9-5.96-5.62-10.1-7.05"/>
      <rect class="cls-1" x="226.1" y="205.76" width="20.21" height="70.23"/>
      <rect class="cls-1" x="250.47" y="221.75" width="20.21" height="54.24"/>
      <rect class="cls-1" x="201.72" y="205.76" width="20.21" height="70.23"/>
      <polygon class="cls-1" points="177.35 235.56 177.35 275.99 197.57 275.99 197.57 221.75 188.4 221.75 177.35 235.56"/>
      <path class="cls-1" d="M320.25,224.35c-1.59-1.02-3.15-1.82-4.93-2.53-3.63-1.46-7.47-2.13-11.41-2.13h-.17s0,0,0,0c-4.02.02-7.92.73-11.58,2.26-3.53,1.47-6.69,3.57-9.4,6.23-2.7,2.65-4.82,5.73-6.3,9.15-1.53,3.54-2.3,7.29-2.3,11.16,0,3.88.78,7.65,2.32,11.19,1.49,3.43,3.62,6.52,6.34,9.17,2.73,2.66,5.91,4.75,9.46,6.22,3.68,1.52,7.6,2.29,11.63,2.29s7.77-.74,11.41-2.21c1.75-.71,3.37-1.53,4.93-2.53v3.37h20.21v-55.28h-20.21s0,3.64,0,3.64ZM319.4,248.22c0,6.16-5.61,11.18-12.5,11.18-6.89,0-12.5-5.01-12.5-11.18,0-2.97,1.29-5.77,3.64-7.88,2.33-2.1,5.44-3.27,8.75-3.3h.11c6.89,0,12.5,5.01,12.5,11.18"/>
      <path class="cls-1" d="M495.39,258.44c-.02,5.16-2.5,10.47-7.23,13.51-5.41,3.47-12.57,5.38-20.15,5.39-12.35,0-26.26-5.76-26.42-18.76v-2.07h21.02s-.03,1.07.31,1.9c.7,1.74,3.17,3.44,5.66,3.44,3.07,0,5.67-1.41,5.67-3.07,0-.91-.37-1.22-1.15-1.54-1.26-.52-3.39-.89-5.8-1.19-5.05-.62-11.93-1.75-18.21-5.77l-.09-.06c-2.37-1.66-4.12-3.43-5.35-5.4-1.39-2.21-2.09-4.67-2.09-7.33,0-5.13,2.82-9.75,7.95-13.01,2.46-1.57,5.39-2.78,8.68-3.62,3.32-.84,6.94-1.18,10.76-1.18h.07c2.75.06,5.68.37,8.47,1.03,3.1.74,5.91,1.78,8.36,3.09,2.81,1.51,5.03,3.33,6.59,5.42,1.78,2.37,2.68,5.02,2.68,7.9v2.17h-22.36s.15-1.49-.46-2.41c-.32-.51-1.42-1.44-3.68-1.44-1.65,0-2.53.23-3.24.66-.36.22-.78.6-.78,1.57,0,.55.14,1.15,1.85,1.86,1.75.73,4.37,1.25,7.41,1.86,4.76.95,9.46,1.54,14.61,4.16l.08.04s.07.04.08.05c4.98,2.78,6.78,7.02,6.76,12.81"/>
    </g>
  </g>
  <g id="F1_Team_Centre">
    <g>
      <path class="cls-1" d="M201.72,294.19h18.2v3.36h-14.21v7.77h12.53v3.29h-12.53v11.09h-3.99v-25.51Z"/>
      <path class="cls-1" d="M226.78,294.19h11.44v25.51h-3.92v-22.15h-7.52v-3.36Z"/>
      <path class="cls-1" d="M258.79,294.19h21.66v3.36h-8.82v22.15h-3.99v-22.15h-8.85v-3.36Z"/>
      <path class="cls-1" d="M287.77,294.19h18.48v3.32h-14.49v7.52h12.98v3.22h-12.98v8.08h15.54v3.36h-19.53v-25.51Z"/>
      <path class="cls-1" d="M324.06,294.19h4.65l10.36,25.51h-4.2l-2.52-6.3h-12l-2.48,6.3h-4.13l10.32-25.51ZM331.06,310.18l-3.08-7.91c-.56-1.43-1.16-2.94-1.61-4.48-.46,1.58-1.02,3.01-1.61,4.48l-3.08,7.91h9.38Z"/>
      <path class="cls-1" d="M345.93,294.19h6.61l3.99,11.3c.94,2.69,1.85,5.32,2.8,8.33.91-2.9,1.92-5.7,2.83-8.33l4.02-11.3h6.51v25.51h-3.92v-17.18c0-1.5,0-3.25.04-5.04-.52,1.68-1.26,3.85-1.96,5.81l-6.05,16.41h-3.01l-6.05-16.41c-.66-1.89-1.33-3.81-1.96-5.81-.03,1.75-.03,3.36,0,5.04v17.18h-3.85v-25.51Z"/>
    </g>
  </g>
  <g id="Atlassian_and_Spear">
    <path class="cls-1" d="M565.62,209.12c0,51.2,1.5,130.17,1.66,138.89h.42c.15-8.72,1.66-87.7,1.66-138.89,0-51.2-1.5-130.17-1.66-138.89h-.42c-.15,8.72-1.66,87.7-1.66,138.89Z"/>
    <path class="cls-1" d="M423.35,99.09h-15.82l-17.99,51.8h13.81l2.55-8.73c3.08.91,6.37,1.46,9.64,1.46s6.54-.55,9.64-1.46l2.55,8.73h13.81l-18.18-51.8h-.02ZM415.53,132.71c-2.36,0-4.54-.36-6.54-.91l6.54-22.53,6.54,22.53c-2,.55-4.37.91-6.54.91M237.97,99.09h-15.82l-18.18,51.8h13.81l2.55-8.73c3.08.91,6.37,1.46,9.64,1.46s6.54-.55,9.64-1.46l2.55,8.73h13.81l-17.99-51.8h-.02ZM229.98,132.71c-2.36,0-4.54-.36-6.54-.91l6.54-22.53,6.54,22.53c-2,.55-4.18.91-6.54.91M104.04,99.09h-15.82l-17.99,51.8h13.81l2.55-8.73c3.08.91,6.37,1.46,9.64,1.46s6.54-.55,9.64-1.46l2.55,8.73h13.81c-.19,0-18.18-51.8-18.18-51.8h-.02ZM96.04,132.71c-2.36,0-4.54-.36-6.54-.91l6.54-22.53,6.54,22.53c-2,.55-4.18.91-6.54.91M121.65,99.07h39.8v11.09h-14.36v40.73h-12.17v-40.71h-13.27v-11.11ZM182.54,99.09v40.54h16.54l-3.82,11.26h-24.72v-51.8h12ZM354.11,135.45c0,9.64-5.8,16.18-20.17,16.18-10.36,0-15.82-2.36-19.99-4.37v-12.36c5.27,3.08,13.27,5.44,19.99,5.44,5.82,0,7.63-1.63,7.63-4.37s-1.81-4.01-10-5.82c-13.99-2.72-17.44-8.71-17.44-16.35,0-9.45,6.9-15.27,20.36-15.27,7.08,0,13.09,1.46,17.08,3.46v11.81c-5.63-2.55-11.45-4.37-17.45-4.37-4.91,0-7.63,1.27-7.63,4.18,0,2.36,1.82,3.99,9.26,5.63,13.63,2.91,18.35,7.09,18.35,16.18v.02ZM379.9,150.89h-12v-51.8h12v51.8ZM467.52,99.09l12.53,23.62,4.18,9.81v-33.43h10.91v51.8h-13.81l-15.63-29.08-4.54-10.36v39.44h-11.09v-51.8h17.46ZM263.96,113.63c0,7.63,3.46,13.63,17.45,16.35,8.18,1.82,10,3.08,10,5.82s-1.82,4.37-7.63,4.37c-6.73,0-14.72-2.36-20-5.45v12.36c4.18,2,9.64,4.37,20,4.37,14.53,0,20.17-6.54,20.17-15.99M303.95,135.62c0-9.09-4.73-13.27-18.35-16.18-7.45-1.64-9.26-3.27-9.26-5.63,0-2.91,2.72-4.18,7.64-4.18,5.99,0,11.81,1.82,17.44,4.37v-11.81c-4.01-2-10-3.46-17.08-3.46-13.45,0-20.35,5.82-20.35,15.27"/>
    <path class="cls-1" d="M282.68,176.51c-78.31,0-199.11,1.5-212.45,1.66v.42c13.34.15,134.14,1.66,212.45,1.66s199.11-1.5,212.45-1.66v-.42c-13.34-.15-134.14-1.66-212.45-1.66Z"/>
  </g>
  <g id="Gulf">
    <path class="cls-1" d="M887.57,149.96l-.07-.25v-.05s-.03-.06-.03-.06l-.02-.05-.02-.05c-1.14-3.64-4.38-6.46-9.65-8.37-2.6-6.02-5.98-11.68-10.06-16.85-4.64-5.88-10.1-11.03-16.24-15.31-12.75-8.89-27.73-13.59-43.32-13.59s-30.57,4.7-43.32,13.59c-6.14,4.28-11.6,9.43-16.24,15.31-4.08,5.17-7.46,10.83-10.06,16.85-5.27,1.91-8.51,4.73-9.65,8.37l-.02.05-.02.05v.05s-.03.05-.03.05l-.06.23c-1.85,6.92-2.78,14.06-2.78,21.24s.92,14.2,2.73,21.04h0s0,.03,0,.03l.18.67.04.16.04.15.06.15.06.15c1.31,3.36,4.49,5.97,9.46,7.77,2.6,6.01,5.98,11.66,10.06,16.82,4.64,5.87,10.1,11.02,16.23,15.29,12.74,8.88,27.71,13.57,43.29,13.57s30.55-4.69,43.29-13.57c6.13-4.27,11.59-9.42,16.23-15.29,4.08-5.16,7.46-10.82,10.06-16.82,4.97-1.8,8.15-4.41,9.46-7.77l.06-.15.06-.15.04-.16.04-.15.18-.67h0s0-.02,0-.02h0s0-.02,0-.02c1.81-6.84,2.73-13.92,2.73-21.04s-.93-14.32-2.77-21.22ZM884.76,191.47h0s0,.02,0,.02l-.18.67-.04.15-.06.15c-1.31,3.35-5.31,5.33-8.92,6.47-2.57,6.22-5.98,12.06-10.18,17.37-4.46,5.64-9.71,10.59-15.6,14.7-12.24,8.53-26.63,13.04-41.6,13.04s-29.36-4.51-41.6-13.04c-5.9-4.11-11.14-9.05-15.6-14.7-4.19-5.31-7.61-11.14-10.18-17.37-3.6-1.14-7.61-3.12-8.92-6.47l-.06-.15-.04-.15-.18-.67h0s0-.02,0-.02c-1.74-6.6-2.63-13.42-2.63-20.29s.9-13.81,2.68-20.47l.06-.23v-.05s.03-.05.03-.05c1.12-3.59,5.27-5.69,9.03-6.88,2.56-6.23,5.98-12.07,10.17-17.39,4.46-5.65,9.71-10.6,15.6-14.72,12.25-8.54,26.64-13.06,41.63-13.06s29.38,4.52,41.63,13.06c5.9,4.11,11.15,9.07,15.6,14.72,4.19,5.31,7.61,11.16,10.17,17.39,3.77,1.19,7.91,3.29,9.03,6.88l.02.05v.05s.08.24.08.24c1.77,6.65,2.67,13.54,2.67,20.46s-.88,13.69-2.63,20.29ZM881.79,151.26c-.68-2.19-3.85-4.1-8.42-5.32-10.12-26.12-35.49-44.64-65.19-44.64s-55.06,18.52-65.19,44.64c-4.57,1.22-7.74,3.13-8.42,5.32l-.06.23c-1.68,6.28-2.57,12.89-2.57,19.7s.88,13.3,2.53,19.53l.18.67c.82,2.11,3.94,3.93,8.37,5.11,10.14,26.09,35.49,44.58,65.17,44.58s55.03-18.49,65.17-44.58c4.43-1.18,7.55-3,8.37-5.11l.18-.67c1.65-6.23,2.53-12.78,2.53-19.53s-.9-13.41-2.57-19.7l-.06-.23ZM808.18,104.69c27.55,0,51.19,16.75,61.28,40.63-17.77-2.93-38.77-4.63-61.28-4.63s-43.51,1.69-61.28,4.63c10.09-23.87,33.73-40.63,61.28-40.63ZM844.84,154.67v35.49h-12.56v-35.49h0v-.02.02h12.56ZM800.92,191.3c-12.12,0-12.12-6.44-12.12-7.79v-14.89h12.57s0,6.3,0,11.83,9.19,3.27,9.19,3.27c0-1.07,0-15.1,0-15.1h12.63s0,21.63,0,21.63h-12.63s0-1.07,0-1.07c-5.46,2.13-9.64,2.12-9.64,2.12ZM736.5,170.38c0-12.83,12.1-19.53,22.37-19.53,11.12,0,16.52,3.81,16.52,3.81v7.62h0s0,0,0,0h0s-4.45-3.4-10.17-3.4c-3.13,0-14.5.7-14.5,12.67s11.52,11.78,11.52,11.78c5.43-.26,5.3-1.33,5.3-1.33v-5.71h-6.28v-7.66h19.21s0,21.59,0,21.59h-12.93s0-1.03,0-1.03c0,0-3.57,2.09-9.9,2.09s-21.14-3.12-21.14-20.91ZM808.18,237.68c-27.55,0-51.19-16.75-61.28-40.63,17.77,2.93,38.77,4.63,61.28,4.63s43.51-1.69,61.28-4.63c-10.09,23.87-33.73,40.63-61.28,40.63ZM877.59,164.26s-1.8-1.3-3.95-1.75c0,0-2.94-.81-2.94,1.73v4.41h5.59v7.62h-5.59v13.97s-12.16,0-12.16,0v-13.89s-5.23-.01-5.23-.01v-7.77s5.23,0,5.23,0c0,0,0-8.03,0-9.72,0,0-.02-5.08,6.64-5.08,8.94,0,12.42,3.18,12.42,3.18v7.31Z"/>
  </g>
  <g id="Official_Partner">
    <g>
      <path class="cls-1" d="M609.52,306.92c0-8.4,4.66-13.09,11.94-13.09s11.97,4.87,12.01,13.09c0,8.4-4.69,13.13-12.01,13.13s-11.97-4.87-11.94-13.13ZM629.3,306.95c0-6.2-2.73-9.63-7.84-9.66-5.15,0-7.84,3.57-7.84,9.63s2.7,9.66,7.84,9.66,7.84-3.47,7.84-9.63Z"/>
      <path class="cls-1" d="M641.57,294.18h18.2v3.36h-14.21v7.77h12.53v3.29h-12.53v11.1h-3.99v-25.52Z"/>
      <path class="cls-1" d="M666.91,294.18h18.2v3.36h-14.21v7.77h12.53v3.29h-12.53v11.1h-3.99v-25.52Z"/>
      <path class="cls-1" d="M692.26,319.69v-25.52h3.99v25.52h-3.99Z"/>
      <path class="cls-1" d="M704.28,306.92c0-8.16,4.41-13.09,12.01-13.09,6.02,0,10.36,3.43,11.1,8.72l-3.99.52c-.63-3.57-3.33-5.74-7.14-5.78-5.04,0-7.84,3.4-7.84,9.63s2.8,9.66,7.84,9.66c4.03,0,6.65-2.28,7.14-5.81l3.99.42c-.6,5.39-5.11,8.86-11.1,8.86-7.77,0-12.04-5.11-12.01-13.13Z"/>
      <path class="cls-1" d="M735.32,319.69v-25.52h3.99v25.52h-3.99Z"/>
      <path class="cls-1" d="M756.68,294.18h4.66l10.36,25.52h-4.2l-2.52-6.3h-12.01l-2.48,6.3h-4.13l10.33-25.52ZM763.68,310.17l-3.08-7.91c-.56-1.44-1.15-2.94-1.61-4.48-.46,1.58-1.02,3.01-1.61,4.48l-3.08,7.91h9.38Z"/>
      <path class="cls-1" d="M778.79,294.18h3.99v22.16h12.67v3.36h-16.66v-25.52Z"/>
      <path class="cls-1" d="M836.15,301.95c0,4.73-3.36,7.74-9,7.74h-7.7v10.01h-3.99v-25.52h11.83c5.43,0,8.86,2.91,8.86,7.77ZM832.06,301.91c0-2.77-1.72-4.31-5.04-4.34h-7.56v8.79h7.56c3.12,0,5.04-1.44,5.04-4.45Z"/>
      <path class="cls-1" d="M849.61,294.18h4.66l10.36,25.52h-4.2l-2.52-6.3h-12.01l-2.49,6.3h-4.13l10.33-25.52ZM856.61,310.17l-3.08-7.91c-.56-1.44-1.16-2.94-1.61-4.48-.46,1.58-1.02,3.01-1.61,4.48l-3.08,7.91h9.38Z"/>
      <path class="cls-1" d="M871.72,294.18h12.46c5.22,0,8.3,2.59,8.3,6.93,0,2.91-1.65,5.15-4.45,5.99,2.87.74,3.89,2.38,3.89,4.9v4.87c0,1.82.28,2.52.63,2.84h-4.13c-.28-.39-.49-1.08-.46-2.77v-4.24c0-2.73-1.3-3.81-3.85-3.85h-8.4v10.85h-3.99v-25.52ZM883.45,305.69c3.26,0,4.9-1.51,4.9-4.13s-1.75-4.03-4.83-4.03h-7.81v8.16h7.74Z"/>
      <path class="cls-1" d="M898.75,294.18h21.67v3.36h-8.82v22.16h-3.99v-22.16h-8.86v-3.36Z"/>
      <path class="cls-1" d="M927.33,294.18h5.18l8.44,12.92c1.75,2.8,3.36,5.39,4.97,8.02-.04-2.66-.1-5.25-.07-7.95v-12.99h3.92v25.52h-5.22l-8.75-13.2c-1.65-2.59-3.12-4.94-4.59-7.39.04,2.56.04,5.08.04,7.6v12.99h-3.92v-25.52Z"/>
      <path class="cls-1" d="M959.13,294.18h18.48v3.33h-14.49v7.53h12.99v3.22h-12.99v8.09h15.54v3.36h-19.53v-25.52Z"/>
      <path class="cls-1" d="M986,294.18h12.46c5.22,0,8.3,2.59,8.3,6.93,0,2.91-1.65,5.15-4.45,5.99,2.87.74,3.89,2.38,3.89,4.9v4.87c0,1.82.28,2.52.63,2.84h-4.13c-.28-.39-.49-1.08-.46-2.77v-4.24c0-2.73-1.3-3.81-3.85-3.85h-8.4v10.85h-3.99v-25.52ZM997.73,305.69c3.26,0,4.9-1.51,4.9-4.13s-1.75-4.03-4.83-4.03h-7.81v8.16h7.74Z"/>
    </g>
  </g>
</svg>